<mxfile host="app.diagrams.net" modified="2023-10-12T14:31:00.504Z" agent="Mozilla/5.0 (Windows NT 10.0; Win64; x64) AppleWebKit/537.36 (KHTML, like Gecko) Chrome/117.0.0.0 Safari/537.36 Edg/117.0.2045.60" version="22.0.4" etag="YA4HLwU9cEIVxCQYGGIx" type="github">
  <diagram name="Страница — 1" id="aFwGhIlkf8Ur0yjNzUNd">
    <mxGraphModel>
      <root>
        <mxCell id="0" />
        <mxCell id="1" parent="0" />
      </root>
    </mxGraphModel>
  </diagram>
</mxfile>
